<svg version="1.1" id="Capa_1" xmlns="http://www.w3.org/2000/svg" xmlns:xlink="http://www.w3.org/1999/xlink" x="0px" y="0px"
	 viewBox="0 0 425.2 425.2" style="enable-background:new 0 0 425.2 425.2;" xml:space="preserve">
  <rect x="60" y="40" width="300" height="350" rx="300" ry="200" fill="#F49F1C" />
<g>
	<path style="fill:#FFF200;" d="M330.177,88.296c0,14.055-11.393,25.448-25.447,25.448c-14.055,0-25.449-11.394-25.449-25.448
		s11.395-25.448,25.449-25.448C318.784,62.848,330.177,74.241,330.177,88.296z"/>
	<path style="opacity:;fill:#EC524F;" d="M406.833,162.986c0,14.055-11.393,25.448-25.447,25.448
		c-14.055,0-25.448-11.394-25.448-25.448s11.393-25.448,25.448-25.448C395.44,137.538,406.833,148.932,406.833,162.986z"/>
	<path style="opacity:1;fill:#00B8B4;" d="M106.269,168.69c0,14.055-11.394,25.448-25.449,25.448
		c-14.054,0-25.447-11.394-25.447-25.448s11.394-25.448,25.447-25.448C94.875,143.242,106.269,154.636,106.269,168.69z"/>
	<path style="opacity:1;fill:#F16263;" d="M99.312,81.858c0,14.055-11.393,25.448-25.447,25.448
		c-14.055,0-25.449-11.394-25.449-25.448S59.81,56.41,73.864,56.41C87.919,56.41,99.312,67.804,99.312,81.858z"/>
	<path style="opacity:1;fill:#9FCC3F;" d="M82.866,276.052c0,14.055-11.393,25.448-25.447,25.448
		c-14.055,0-25.448-11.394-25.448-25.448c0-14.055,11.394-25.448,25.448-25.448C71.474,250.604,82.866,261.997,82.866,276.052z"/>
	<path style="opacity:1;fill:#F7941D;" d="M159.726,336.571c0,14.055-11.395,25.448-25.449,25.448
		c-14.055,0-25.447-11.393-25.447-25.448c0-14.055,11.393-25.448,25.447-25.448C148.331,311.123,159.726,322.517,159.726,336.571z"
		/>
	<path style="opacity:1;fill:#7AD0E2;" d="M308.343,334.541c0,14.055-11.393,25.448-25.447,25.448
		c-14.055,0-25.449-11.394-25.449-25.448c0-14.055,11.395-25.448,25.449-25.448C296.95,309.093,308.343,320.486,308.343,334.541z"/>
	<path style="opacity:1;fill:#9B59A2;" d="M369.653,264.727c0,14.055-11.393,25.448-25.447,25.448
		c-14.055,0-25.449-11.393-25.449-25.448c0-14.055,11.395-25.448,25.449-25.448C358.261,239.278,369.653,250.672,369.653,264.727z"
		/>


</g>
<g>
	<g>
		<g>
			<g>
				<g>
					<g>
						<path style="fill:#FCC3A2;" d="M165.67,311.964L115.626,202.67l-1.425-3.112l0.653-2.792l19.003-81.177
							c0.564-2.408,2.974-3.903,5.382-3.34c2.251,0.527,3.704,2.666,3.425,4.91l-0.047,0.361l-10.655,83.017l-0.77-5.904
							l61.194,103.535c4.232,7.159,1.858,16.393-5.302,20.626c-7.159,4.231-16.394,1.858-20.625-5.301
							c-0.267-0.451-0.507-0.91-0.722-1.376L165.67,311.964z"/>
					</g>
				</g>
			</g>
			<g>
				<g>
					<path style="fill:#2C4B5B;" d="M162.637,124.001l-6.5-0.012c-2.668-0.003-4.9-1.854-5.505-4.338v0.005
						c0,0-0.002-0.012-0.008-0.034c-0.013-0.065-0.034-0.129-0.052-0.196c-0.188-0.71-0.959-2.867-3.286-2.872v0.005l-26.729-0.053
						l0.006-0.003c-2.783-0.003-3.357,3.087-3.357,3.087v-0.022c-0.603,2.49-2.851,4.339-5.529,4.335l-6.496-0.013
						c-3.141-0.009-5.68-2.555-5.674-5.695l0.039-17.057c0-3.139,2.551-5.682,5.689-5.675l6.496,0.013
						c2.681,0.005,4.916,1.861,5.515,4.356v-0.025c0,0,0.562,3.094,3.342,3.099v-0.002l26.732,0.05v0.006
						c2.32,0.007,3.104-2.152,3.293-2.861c0.013-0.063,0.033-0.122,0.049-0.185c0.006-0.021,0.008-0.04,0.008-0.04v0.006
						c0.619-2.481,2.852-4.323,5.525-4.317l6.496,0.01c3.141,0.005,5.681,2.559,5.676,5.697l-0.035,17.055
						C168.33,121.467,165.777,124.007,162.637,124.001z"/>
					<path style="fill:#BCBEC0;" d="M163.502,98.78c-2.984-0.531-8.624-1.165-9.858,2.601c-0.599,1.798,0.614,4.395-1.638,5.144
						c-1.09,0.358-3.317,0.358-4.873,0.354c-6.935-0.009-13.191,0.13-19.824,0.14c-2.51,0.005-5.018,0.037-7.521-0.083
						c-1.765-0.087-3.717-0.258-4.551-2.039c-0.378-0.807-0.607-1.903-0.628-2.787c-0.081-2.825-3.245-3.856-7.87-2.669
						c-2.076,0.534-1.915,3.782-1.972,5.751c-0.081,2.672,0.009,5.347-0.137,8.02c-0.163,2.92,0.014,6.074,2.231,8.233
						c1.6,1.55,4.313,1.725,6.408,2.229c-0.504,0.146-1.033,0.229-1.594,0.229l-6.496-0.013c-3.141-0.009-5.68-2.555-5.674-5.695
						l0.039-17.057c0-3.139,2.551-5.682,5.689-5.675l6.496,0.013c2.681,0.005,4.916,1.861,5.515,4.356v-0.025
						c0,0,0.562,3.094,3.342,3.097c0,0,26.732,0.05,26.732,0.056c2.32,0.007,3.104-2.152,3.293-2.861
						c0.013-0.063,0.033-0.122,0.049-0.185c0.006-0.021,0.008-0.04,0.008-0.034c0.619-2.481,2.852-4.323,5.525-4.317l6.496,0.01
						c3.141,0.005,5.681,2.559,5.676,5.697l-0.004,1.628C167.093,99.814,165.6,99.151,163.502,98.78z"/>
					<path style="opacity:0.4;fill:#FFFFFF;" d="M160.58,119.988c-2.381-0.003-4.307-1.939-4.3-4.319l0.006-3.537l-43.668-0.085
						l-0.006,2.528c-0.004,2.38-1.355,4.31-3.023,4.304c-1.657,0-3.005-1.937-3.001-4.317l0.02-9.764
						c0.002-2.384,1.359-4.314,3.02-4.308c1.662,0.004,3.006,1.937,3.004,4.316l-0.006,3.968l43.667,0.086l0.005-2.958
						c0.006-2.38,1.934-4.308,4.316-4.305c2.385,0.006,4.311,1.94,4.303,4.322l-0.011,9.766
						C164.895,118.065,162.959,119.992,160.58,119.988z"/>
				</g>
				<g>
					<g>
						<g>
							<path style="fill:#FCC3A2;" d="M140.189,102.767c-0.008-0.922,0.734-1.675,1.662-1.682l0,0
								c0.921-0.006,1.674,0.735,1.68,1.657l0.043,5.372c0.008,0.922-0.737,1.676-1.66,1.682l0,0
								c-0.918,0.006-1.676-0.735-1.682-1.657L140.189,102.767z"/>
						</g>
					</g>
					<g>
						<g>
							<path style="fill:#FCC3A2;" d="M136.162,103.059c-0.011-1.092,0.73-1.979,1.654-1.984l0,0
								c0.926-0.006,1.681,0.87,1.686,1.958l0.05,6.333c0.005,1.087-0.734,1.973-1.657,1.98l0,0
								c-0.925,0.009-1.682-0.867-1.685-1.956L136.162,103.059z"/>
						</g>
					</g>
					<g>
						<g>
							<path style="fill:#FCC3A2;" d="M131.887,102.619c-0.004-0.852,0.74-1.543,1.664-1.553l0,0c0.92-0.003,1.672,0.676,1.68,1.528
								l0.039,4.939c0.004,0.849-0.738,1.54-1.664,1.55l0,0c-0.919,0.009-1.676-0.677-1.682-1.524L131.887,102.619z"/>
						</g>
					</g>
					<g>
						<g>
							<path style="fill:#FCC3A2;" d="M127.955,102.401c-0.006-0.729,0.737-1.336,1.664-1.339l0,0
								c0.918-0.01,1.676,0.581,1.676,1.317l0.036,3.079c0.004,0.735-0.739,1.338-1.663,1.345l0,0
								c-0.924,0.006-1.679-0.584-1.681-1.321L127.955,102.401z"/>
						</g>
					</g>
				</g>
			</g>
		</g>
		<g>
			<g>
				<g>
					<g>
						<path style="fill:#FCC3A2;" d="M233.865,298.708l60.145-104.076l-0.771,5.904l-16.884-81.644
							c-0.5-2.422,1.057-4.792,3.479-5.293c2.264-0.468,4.481,0.862,5.171,3.015l0.109,0.347l25.232,79.804l0.772,2.443
							l-1.543,3.461l-48.995,109.835c-3.388,7.595-12.292,11.006-19.887,7.618c-7.595-3.388-11.006-12.292-7.618-19.887
							c0.214-0.479,0.449-0.94,0.705-1.385L233.865,298.708z"/>
					</g>
				</g>
			</g>
			<g>
				<g>
					<path style="fill:#2C4B5B;" d="M262.57,124.001l6.494-0.012c2.673-0.003,4.906-1.854,5.505-4.338v0.005
						c0,0,0.008-0.012,0.011-0.034c0.01-0.065,0.035-0.129,0.052-0.196c0.185-0.71,0.961-2.867,3.283-2.872l0.006,0.005
						l26.724-0.053v-0.003c2.779-0.003,3.352,3.087,3.352,3.087v-0.022c0.611,2.49,2.853,4.339,5.529,4.335l6.502-0.013
						c3.135-0.009,5.675-2.555,5.666-5.695l-0.035-17.057c-0.004-3.139-2.549-5.682-5.691-5.675l-6.496,0.013
						c-2.676,0.005-4.916,1.861-5.515,4.356v-0.025c0,0-0.558,3.094-3.339,3.099v-0.002l-26.728,0.05v0.006
						c-2.324,0.007-3.105-2.152-3.299-2.861c-0.01-0.063-0.031-0.122-0.045-0.185c-0.006-0.021-0.01-0.04-0.01-0.04v0.006
						c-0.612-2.481-2.853-4.323-5.525-4.317l-6.494,0.01c-3.141,0.005-5.684,2.559-5.676,5.697l0.036,17.055
						C256.876,121.467,259.426,124.007,262.57,124.001z"/>
					<path style="fill:#BCBEC0;" d="M261.706,98.78c2.979-0.531,8.617-1.165,9.854,2.601c0.596,1.798-0.617,4.395,1.637,5.144
						c1.09,0.358,3.32,0.358,4.873,0.354c6.936-0.009,13.195,0.13,19.826,0.14c2.508,0.005,5.018,0.037,7.519-0.083
						c1.763-0.087,3.719-0.258,4.555-2.039c0.375-0.807,0.603-1.903,0.624-2.787c0.083-2.825,3.245-3.856,7.872-2.669
						c2.074,0.534,1.914,3.782,1.973,5.751c0.078,2.672-0.011,5.347,0.139,8.02c0.158,2.92-0.018,6.074-2.236,8.233
						c-1.598,1.55-4.309,1.725-6.409,2.229c0.505,0.146,1.039,0.229,1.593,0.229l6.502-0.013c3.135-0.009,5.675-2.555,5.666-5.695
						l-0.035-17.057c-0.004-3.139-2.549-5.682-5.691-5.675l-6.496,0.013c-2.676,0.005-4.916,1.861-5.515,4.356v-0.025
						c0,0-0.558,3.094-3.339,3.097c0,0-26.728,0.05-26.728,0.056c-2.324,0.007-3.105-2.152-3.299-2.861
						c-0.01-0.063-0.031-0.122-0.045-0.185c-0.006-0.021-0.01-0.04-0.01-0.034c-0.612-2.481-2.853-4.323-5.525-4.317l-6.494,0.01
						c-3.141,0.005-5.684,2.559-5.676,5.697l0.002,1.628C258.11,99.814,259.598,99.151,261.706,98.78z"/>
					<path style="opacity:0.4;fill:#FFFFFF;" d="M264.623,119.988c2.379-0.003,4.313-1.939,4.303-4.319l-0.009-3.537l43.668-0.085
						l0.006,2.528c0.005,2.38,1.36,4.31,3.024,4.304c1.657,0,3.007-1.937,2.998-4.317l-0.02-9.764c0-2.384-1.355-4.314-3.017-4.308
						c-1.664,0.004-3.01,1.937-3.008,4.316l0.013,3.968l-43.67,0.086l-0.004-2.958c-0.009-2.38-1.934-4.308-4.319-4.305
						c-2.383,0.006-4.307,1.94-4.302,4.322l0.012,9.766C260.31,118.065,262.244,119.992,264.623,119.988z"/>
				</g>
				<g>
					<g>
						<g>
							<path style="fill:#FCC3A2;" d="M285.012,102.767c0.014-0.922-0.738-1.675-1.658-1.682l0,0
								c-0.924-0.006-1.674,0.735-1.682,1.657l-0.041,5.372c-0.01,0.922,0.736,1.676,1.658,1.682l0,0
								c0.923,0.006,1.674-0.735,1.684-1.657L285.012,102.767z"/>
						</g>
					</g>
					<g>
						<g>
							<path style="fill:#FCC3A2;" d="M289.042,103.059c0.011-1.092-0.733-1.979-1.657-1.984l0,0
								c-0.921-0.006-1.678,0.87-1.685,1.958l-0.044,6.333c-0.01,1.087,0.733,1.973,1.651,1.98l0,0
								c0.925,0.009,1.683-0.867,1.69-1.956L289.042,103.059z"/>
						</g>
					</g>
					<g>
						<g>
							<path style="fill:#FCC3A2;" d="M293.314,102.619c0.01-0.852-0.739-1.543-1.66-1.553l0,0c-0.922-0.003-1.674,0.676-1.68,1.528
								l-0.038,4.939c-0.003,0.849,0.737,1.54,1.661,1.55l0,0c0.915,0.009,1.676-0.677,1.68-1.524L293.314,102.619z"/>
						</g>
					</g>
					<g>
						<g>
							<path style="fill:#FCC3A2;" d="M297.248,102.401c0.006-0.729-0.737-1.336-1.662-1.339l0,0
								c-0.922-0.01-1.674,0.581-1.674,1.317l-0.033,3.079c-0.011,0.735,0.734,1.338,1.659,1.345l0,0
								c0.919,0.006,1.674-0.584,1.676-1.321L297.248,102.401z"/>
						</g>
					</g>
				</g>
			</g>
		</g>
		<g>
			<rect x="201.11" y="235.917" style="fill:#FCC19B;" width="21.952" height="21.506"/>
			<path style="fill:#BCBEC0;" d="M203.05,251.456c6.013-5.247,14.984-3.848,20.013-10.608v-4.932H201.11v17.916
				C201.641,252.939,202.276,252.138,203.05,251.456z"/>
		</g>
		<path style="fill:#FCC19B;" d="M175.738,369.138h72.695l12.223-86.135c2.871-12.01-6.463-17.833-6.463-17.833l-32.061-12.739
			h-20.094l-32.063,12.739c0,0-9.334,5.822-6.459,17.833L175.738,369.138z"/>
		<path style="fill:#65BEBD;" d="M259.384,318.97"/>
		<path style="fill:#65BEBD;" d="M170.888,370.239h81.987c0.526-32.397,3.207-52.246,3.207-52.246
			c-14.463-18.355-8.602-55.491-8.602-55.491l-17.85-7.095c-4.525,4.831-10.91,7.903-17.918,7.903
			c-6.908,0-13.213-2.978-17.719-7.683l-20.963,8.328c1.811,3.478,2.959,7.427,3.39,11.58c1.81,17.508-0.892,26.292-9.534,40.817
			C166.887,316.352,169.621,339.755,170.888,370.239z"/>
		<g>
			<path style="fill:#FCC3A2;" d="M178.047,200.636c0.834,4.382-0.735,8.353-3.487,8.869c-2.757,0.518-5.662-2.61-6.478-6.993
				c-0.828-4.381,0.732-8.349,3.494-8.868C174.332,193.124,177.227,196.256,178.047,200.636z"/>
			<path style="fill:#D1D3D4;" d="M173.09,197.91c0,0-0.182,0.088-0.512,0.208c-0.147,0.057-0.383,0.095-0.52,0.258
				c-0.151,0.154-0.331,0.218-0.447,0.436c-0.145,0.173-0.252,0.379-0.326,0.632c-0.125,0.201-0.079,0.535-0.164,0.793
				c0.012,0.601,0,1.26,0.191,1.923c0.115,0.667,0.351,1.317,0.588,1.896c0.25,0.591,0.559,1.059,0.877,1.418
				c0.167,0.126,0.33,0.293,0.502,0.365c0.164,0.028,0.361,0.157,0.503,0.104c0.3-0.041,0.526-0.061,0.526-0.061
				s-0.125,0.139-0.428,0.373c-0.148,0.141-0.398,0.134-0.679,0.206c-0.284,0.041-0.614-0.043-0.938-0.169
				c-0.629-0.292-1.229-0.836-1.656-1.505c-0.455-0.663-0.764-1.456-0.946-2.28c-0.087-0.415-0.133-0.84-0.133-1.267
				c-0.048-0.418,0.087-0.859,0.137-1.261c0.151-0.405,0.237-0.801,0.514-1.132c0.123-0.167,0.235-0.329,0.362-0.466
				c0.164-0.109,0.316-0.216,0.468-0.316c0.26-0.233,0.646-0.246,0.902-0.299c0.278-0.068,0.468,0.006,0.641,0.026
				C172.893,197.852,173.09,197.91,173.09,197.91z"/>
		</g>
		<g>
			<path style="fill:#FCC3A2;" d="M245.656,200.636c-0.828,4.382,0.739,8.353,3.494,8.869c2.754,0.518,5.656-2.61,6.482-6.993
				c0.828-4.381-0.743-8.349-3.5-8.868C249.377,193.124,246.484,196.256,245.656,200.636z"/>
			<path style="fill:#D1D3D4;" d="M250.617,197.91c0,0,0.186,0.088,0.51,0.208c0.155,0.057,0.387,0.095,0.523,0.258
				c0.151,0.154,0.328,0.218,0.447,0.436c0.153,0.173,0.256,0.379,0.328,0.632c0.119,0.201,0.079,0.535,0.16,0.793
				c-0.011,0.601,0,1.26-0.188,1.923c-0.115,0.667-0.35,1.317-0.595,1.896c-0.249,0.591-0.556,1.059-0.872,1.418
				c-0.165,0.126-0.326,0.293-0.502,0.365c-0.165,0.028-0.364,0.157-0.506,0.104c-0.295-0.041-0.525-0.061-0.525-0.061
				s0.121,0.139,0.434,0.373c0.145,0.141,0.393,0.134,0.677,0.206c0.274,0.041,0.612-0.043,0.942-0.169
				c0.621-0.292,1.221-0.836,1.648-1.505c0.459-0.663,0.767-1.456,0.946-2.28c0.087-0.415,0.139-0.84,0.139-1.267
				c0.044-0.418-0.093-0.859-0.142-1.261c-0.152-0.405-0.23-0.801-0.511-1.132c-0.127-0.167-0.233-0.329-0.36-0.466
				c-0.166-0.109-0.322-0.216-0.468-0.316c-0.264-0.233-0.646-0.246-0.91-0.299c-0.278-0.068-0.466,0.006-0.637,0.026
				C250.814,197.852,250.617,197.91,250.617,197.91z"/>
		</g>
		<path style="fill:#FCC3A2;" d="M212.082,137.52v-0.003c-0.155,0-0.311,0.003-0.459,0.003c-0.155,0-0.307-0.003-0.457-0.003v0.003
			c-23.246,0.207-41.281,8.346-37.714,50.713l6.568,32.232c0,0,0.716,6.155,7.467,9.84l15.026,9.362c0,0,6.001,2.662,9.109,2.399
			c3.107,0.263,9.107-2.399,9.107-2.399l15.026-9.362c6.75-3.685,7.465-9.84,7.465-9.84l6.57-32.232
			C253.361,145.865,235.324,137.726,212.082,137.52z"/>
		<path style="fill:#5C321B;" d="M175.611,141.234c-2.555,2.666-4.52,5.742-5.558,9.684c-2.138,8.13-1.085,16.961-0.05,25.18
			c0.98,7.79,2.09,15.668,5.469,22.843h2.135c0,0-5.355-29.009,5.398-42.138c0,0,36.698,15.553,55.621,2.089
			c0,0,9.908,15.447,6.81,38.844h2.563c0.439-1.096,0.769-2.22,1.081-3.363c4.182-15.326,6.577-31.97,2.703-47.614
			c0,0,1.074-24.899-29.838-29.094c0,0,2.832,7.099,2.136,10.334c0,0-1.605-15.269-29.866-13.048c0,0,3.793,2.466,5.133,7.4
			c0,0-6.055-6.214-19.375-2.86c0,0,8.311,11.821,1.76,16.572C179.484,137.692,177.404,139.365,175.611,141.234z"/>
		<g>
			<path style="fill:#452209;" d="M183.006,156.803c0,0,0.88,0.234,2.419,0.644c1.534,0.409,3.729,0.968,6.351,1.619
				c1.311,0.31,2.733,0.646,4.236,1.001c1.506,0.32,3.094,0.657,4.736,1.006c1.64,0.347,3.349,0.617,5.074,0.921
				c1.728,0.3,3.489,0.535,5.252,0.729c1.76,0.201,3.523,0.381,5.26,0.447c1.736,0.073,3.443,0.138,5.092,0.075
				c1.648-0.054,3.236-0.163,4.736-0.341c1.494-0.203,2.902-0.446,4.189-0.747c1.273-0.335,2.455-0.645,3.461-1.038
				c1.033-0.341,1.877-0.766,2.605-1.075c0.712-0.334,1.247-0.65,1.63-0.843c0.378-0.201,0.58-0.309,0.58-0.309
				s-0.167,0.155-0.48,0.445c-0.324,0.275-0.754,0.755-1.401,1.234c-0.654,0.463-1.423,1.102-2.423,1.628
				c-0.967,0.598-2.129,1.143-3.43,1.665c-0.656,0.232-1.336,0.517-2.059,0.733c-0.727,0.201-1.479,0.433-2.262,0.6
				c-1.564,0.349-3.236,0.655-4.977,0.791c-0.869,0.076-1.755,0.153-2.65,0.173c-0.448,0.016-0.899,0.033-1.352,0.049
				c-0.452-0.01-0.907-0.019-1.363-0.029c-1.827-0.034-3.671-0.178-5.511-0.359c-1.831-0.239-3.653-0.52-5.432-0.865
				c-1.781-0.326-3.506-0.779-5.168-1.215c-1.666-0.426-3.244-0.947-4.737-1.441c-1.492-0.497-2.884-1.021-4.153-1.537
				C186.128,158.736,183.006,156.803,183.006,156.803z"/>
		</g>
		<g>
			<g>
				<path style="fill:#E3B190;" d="M205.088,202.626c0,0,0.895,0.209,2.235,0.521c0.63,0.146,1.335,0.294,2.058,0.422
					c0.355,0.05,0.724,0.103,1.098,0.155c0.369,0.016,0.735,0.093,1.102,0.073c0.367,0.04,0.728,0.013,1.088,0
					c0.365,0.015,0.711-0.07,1.066-0.088c0.36-0.006,0.688-0.131,1.031-0.167c0.348-0.03,0.655-0.148,0.965-0.216
					c0.302-0.085,0.623-0.107,0.871-0.206c0.25-0.089,0.493-0.146,0.691-0.2c0.401-0.105,0.664-0.148,0.664-0.148
					s-0.086,0.231-0.293,0.606c-0.105,0.186-0.232,0.42-0.406,0.665c-0.154,0.268-0.4,0.494-0.66,0.763
					c-0.269,0.255-0.554,0.56-0.932,0.775c-0.373,0.214-0.752,0.509-1.214,0.654c-0.454,0.156-0.927,0.367-1.438,0.414
					c-0.254,0.037-0.511,0.083-0.77,0.107c-0.259,0.016-0.518,0.002-0.779,0c-0.523-0.003-1.029-0.106-1.522-0.213
					c-0.487-0.119-0.952-0.293-1.38-0.485c-0.852-0.4-1.557-0.913-2.082-1.423c-0.523-0.518-0.884-1.013-1.098-1.391
					C205.163,202.872,205.088,202.626,205.088,202.626z"/>
			</g>
			<g>
				<g>
					<g>
						<g>
							<g>
								<path style="fill:#2F0F00;" d="M221.734,185.18c0,2.242,1.816,4.06,4.064,4.06c2.234,0,4.059-1.818,4.059-4.06
									c0-2.241-1.824-4.061-4.059-4.061C223.551,181.119,221.734,182.939,221.734,185.18z"/>
								<path style="fill:#FFFFFF;" d="M226.867,183.124c0,0.851,0.686,1.54,1.539,1.54c0.848,0,1.541-0.689,1.541-1.54
									c0-0.852-0.693-1.54-1.541-1.54C227.554,181.584,226.867,182.272,226.867,183.124z"/>
								<path style="fill:#FFFFFF;" d="M225.963,185.18c0,0.497,0.406,0.903,0.904,0.903c0.495,0,0.9-0.407,0.9-0.903
									c0-0.499-0.405-0.905-0.9-0.905C226.369,184.274,225.963,184.68,225.963,185.18z"/>
							</g>
							<path style="fill:#5C321B;" d="M217.529,170.353c0,0-1.975,2.551-0.464,5.068l16.62,1.52c0,0,3.873,0.55,5.742,2.707
								C239.428,179.648,241.299,170.093,217.529,170.353z"/>
						</g>
					</g>
				</g>
				<g>
					<g>
						<g>
							<g>
								<path style="fill:#2F0F00;" d="M199.348,185.328c0,2.242-1.814,4.058-4.059,4.058c-2.242,0-4.061-1.816-4.061-4.058
									c0-2.245,1.818-4.062,4.061-4.062C197.533,181.266,199.348,183.083,199.348,185.328z"/>
								<path style="fill:#FFFFFF;" d="M194.215,183.274c0,0.85-0.688,1.541-1.537,1.541c-0.848,0-1.541-0.691-1.541-1.541
									c0-0.854,0.693-1.539,1.541-1.539C193.526,181.735,194.215,182.42,194.215,183.274z"/>
								<path style="fill:#FFFFFF;" d="M195.123,185.328c0,0.5-0.404,0.902-0.908,0.902c-0.495,0-0.9-0.402-0.9-0.902
									c0-0.497,0.405-0.901,0.9-0.901C194.719,184.427,195.123,184.831,195.123,185.328z"/>
							</g>
							<path style="fill:#5C321B;" d="M203.556,170.501c0,0,1.972,2.552,0.466,5.067l-16.621,1.518c0,0-3.873,0.551-5.744,2.708
								C181.656,179.794,179.787,170.241,203.556,170.501z"/>
						</g>
					</g>
				</g>
			</g>
			<g>
				<g>
					<path style="fill:#FFFFFF;" d="M201.694,215.741c0.189,4.717,4.556,8.496,9.923,8.496c5.373,0,9.746-3.779,9.939-8.496H201.694
						z"/>
					<g>
						<path style="fill:#CBA084;" d="M221.557,215.741c0,0-1.241,0.252-3.104,0.431c-0.932,0.097-2.018,0.178-3.182,0.231
							c-1.163,0.063-2.404,0.075-3.646,0.091c-0.62-0.008-1.24-0.017-1.852-0.025c-0.611,0-1.213-0.045-1.795-0.064
							c-1.164-0.053-2.25-0.133-3.181-0.231c-1.862-0.179-3.104-0.433-3.104-0.433s1.241-0.253,3.104-0.433
							c0.931-0.098,2.017-0.178,3.181-0.231c0.582-0.019,1.184-0.064,1.795-0.064c0.611-0.008,1.231-0.017,1.852-0.025
							c1.242,0.016,2.483,0.027,3.646,0.091c1.164,0.054,2.25,0.134,3.182,0.231C220.315,215.489,221.557,215.741,221.557,215.741z"
							/>
					</g>
					<g>
						<path style="fill:#CBA084;" d="M201.694,215.741c0,0,0.024,0.111,0.071,0.318c0.05,0.205,0.102,0.521,0.233,0.885
							c0.102,0.37,0.294,0.8,0.513,1.283c0.25,0.471,0.558,0.981,0.955,1.488c0.403,0.502,0.884,1.006,1.451,1.465
							c0.566,0.459,1.215,0.875,1.927,1.22c0.701,0.367,1.489,0.603,2.29,0.804c0.788,0.208,1.682,0.26,2.455,0.281
							c0.945-0.025,1.701-0.077,2.521-0.283c0.799-0.205,1.588-0.438,2.289-0.806c0.711-0.344,1.359-0.761,1.926-1.22
							c0.568-0.457,1.049-0.962,1.453-1.463c0.398-0.506,0.705-1.016,0.955-1.487c0.22-0.482,0.414-0.912,0.517-1.287
							c0.132-0.368,0.184-0.672,0.233-0.879c0.047-0.208,0.072-0.319,0.072-0.319s0.004,0.113,0.01,0.326
							c-0.002,0.212,0.039,0.533-0.021,0.931c-0.025,0.405-0.121,0.889-0.273,1.44c-0.098,0.267-0.188,0.56-0.311,0.857
							c-0.145,0.286-0.275,0.604-0.466,0.903c-0.362,0.61-0.821,1.244-1.415,1.813c-0.582,0.576-1.266,1.128-2.057,1.557
							c-0.777,0.452-1.647,0.811-2.563,1.046c-0.898,0.251-1.95,0.344-2.804,0.374c-1.024-0.035-1.939-0.121-2.869-0.374
							c-0.916-0.236-1.786-0.594-2.563-1.046c-0.792-0.428-1.474-0.983-2.058-1.557c-0.593-0.568-1.05-1.204-1.412-1.813
							c-0.368-0.609-0.602-1.219-0.775-1.761c-0.152-0.55-0.247-1.035-0.273-1.444c-0.062-0.403-0.019-0.712-0.02-0.926
							C201.691,215.855,201.694,215.741,201.694,215.741z"/>
					</g>
				</g>
				<path style="fill:#CBA084;" d="M208.98,227.421c0,0,0.324-0.04,0.828-0.072c0.496-0.016,1.155-0.038,1.814-0.059
					c0.66,0.021,1.325,0.043,1.82,0.059c0.494,0.029,0.824,0.072,0.824,0.072v0.264c0,0-0.33,0.755-0.824,1.289
					c-0.246,0.298-0.541,0.522-0.848,0.704c-0.313,0.165-0.641,0.251-0.973,0.256c-0.332-0.007-0.659-0.096-0.967-0.262
					c-0.16-0.072-0.311-0.208-0.449-0.317c-0.147-0.094-0.28-0.246-0.398-0.387c-0.504-0.535-0.828-1.283-0.828-1.283V227.421z"/>
			</g>
		</g>
	</g>
</g>

</svg>